# xmcd
#
# Track frame offsets:
#	150
#	16942
#	29145
#	46965
#	66912
#	83807
#	99782
#	120460
#	136310
#	152555
#	167197
#	185315
#	204127
#	220620
#	233117
#	246355
#
# Disc length: 3448
#
# Revision: 1
# Processed by: cddbd v1.5.1PL0 Copyright (c) Steve Scherf et al.
# Submitted via: VisiTrax 2.9.5.180 - For more info visit www.synapsa.com
# Normalized: r0:DSETVAR1
#
DISCID=cc0d7610
DTITLE=Various Artist - CDX 221 August 1999
DYEAR=1999
DGENRE=
TTITLE0=Pam Tillis - After a kiss
TTITLE1=Mindy McCready - All I want is everything
TTITLE2=Brad Paisley - He didn't have to be
TTITLE3=Garth Brooks - It don't matter to the sun
TTITLE4=Keith Urban - It's a love thing
TTITLE5=John Berry - Power windows
TTITLE6=Tracy Byrd - Put your hand in mine
TTITLE7=Joe Diffie - Quittin kind
TTITLE8=Redmon and Vale - Squeezin' the love oyya you
TTITLE9=Hank Williams Jr. - They all want to go wild (and I want to go home)
TTITLE10=Dwight oakam - Thinking about leaving
TTITLE11=Clint Black - When I said I do
TTITLE12=Mullins-Black - You didn't did ya
TTITLE13=Young Country: Sheldon Lee and Jeff Moore - (Old scholl of) Your country
TTITLE14=Kelli Hake - The way you make love
TTITLE15=Barry Martin - Butt scootin' boogie
EXTD=
EXTT0=
EXTT1=
EXTT2=
EXTT3=
EXTT4=
EXTT5=
EXTT6=
EXTT7=
EXTT8=
EXTT9=
EXTT10=
EXTT11=
EXTT12=
EXTT13=
EXTT14=
EXTT15=
PLAYORDER=
